<?xml version="1.0" encoding="UTF-8" standalone="no"?>
<!-- Created with Inkscape (http://www.inkscape.org/) -->

<svg
   xmlns:dc="http://purl.org/dc/elements/1.1/"
   xmlns:cc="http://creativecommons.org/ns#"
   xmlns:rdf="http://www.w3.org/1999/02/22-rdf-syntax-ns#"
   xmlns:svg="http://www.w3.org/2000/svg"
   xmlns="http://www.w3.org/2000/svg"
   xmlns:sodipodi="http://sodipodi.sourceforge.net/DTD/sodipodi-0.dtd"
   xmlns:inkscape="http://www.inkscape.org/namespaces/inkscape"
   width="48"
   height="48"
   viewBox="0 0 12.7 12.7"
   version="1.1"
   id="svg8"
   inkscape:version="0.92.2 (5c3e80d, 2017-08-06)"
   sodipodi:docname="150-plow.svg">
  <defs
     id="defs2" />
  <sodipodi:namedview
     id="base"
     pagecolor="#ffffff"
     bordercolor="#666666"
     borderopacity="1.0"
     inkscape:pageopacity="0.0"
     inkscape:pageshadow="2"
     inkscape:zoom="7.9195959"
     inkscape:cx="22.661203"
     inkscape:cy="24.991631"
     inkscape:document-units="mm"
     inkscape:current-layer="layer1"
     showgrid="true"
     units="px"
     inkscape:snap-global="true"
     inkscape:snap-smooth-nodes="true"
     inkscape:snap-midpoints="true"
     inkscape:window-width="1136"
     inkscape:window-height="742"
     inkscape:window-x="173"
     inkscape:window-y="0"
     inkscape:window-maximized="0">
    <inkscape:grid
       type="xygrid"
       id="grid815"
       empspacing="8"
       originy="1.0583333"
       originx="1.0583333" />
  </sodipodi:namedview>
  <metadata
     id="metadata5">
    <rdf:RDF>
      <cc:Work
         rdf:about="">
        <dc:format>image/svg+xml</dc:format>
        <dc:type
           rdf:resource="http://purl.org/dc/dcmitype/StillImage" />
        <dc:title></dc:title>
      </cc:Work>
    </rdf:RDF>
  </metadata>
  <g
     inkscape:label="Layer 1"
     inkscape:groupmode="layer"
     id="layer1"
     transform="translate(0,-284.29998)">
    <path
       id="path880-6"
       style="fill:none;stroke:#645034;stroke-width:1.05833328;stroke-linecap:butt;stroke-linejoin:miter;stroke-miterlimit:4;stroke-dasharray:none;stroke-opacity:1;fill-opacity:1"
       d="m 8.2020834,285.35831 c 0.5291667,-0.52917 1.3229167,-0.52917 1.8520836,0 0.529167,0.52916 1.322917,0.52916 1.852083,0 m -7.4083334,0 c 0.5291667,-0.52917 1.3229167,-0.52917 1.8520833,0 0.5291667,0.52916 1.3229169,0.52916 1.8520835,0 m -7.40833343,0 c 0.52916673,-0.52917 1.32291673,-0.52917 1.85208333,0 0.5291667,0.52916 1.3229167,0.52916 1.8520834,0"
       inkscape:connector-curvature="0" />
    <path
       id="path880-6-2"
       style="fill:none;stroke:#746044;stroke-width:1.05833328;stroke-linecap:butt;stroke-linejoin:miter;stroke-miterlimit:4;stroke-dasharray:none;stroke-opacity:1"
       d="m 8.2020835,287.47498 c 0.5291667,-0.52917 1.3229165,-0.52917 1.8520835,0 0.529167,0.52916 1.322917,0.52916 1.852083,0 m -7.4083334,0 c 0.5291669,-0.52917 1.3229169,-0.52917 1.8520833,0 0.5291667,0.52916 1.3229169,0.52916 1.8520836,0 m -7.40833353,0 c 0.52916673,-0.52917 1.32291673,-0.52917 1.85208333,0 0.5291668,0.52916 1.3229169,0.52916 1.8520835,0"
       inkscape:connector-curvature="0" />
    <path
       id="path880-6-9"
       style="fill:none;stroke:#746044;stroke-width:1.05833328;stroke-linecap:butt;stroke-linejoin:miter;stroke-miterlimit:4;stroke-dasharray:none;stroke-opacity:1"
       d="m 8.2020834,289.59165 c 0.5291667,-0.52917 1.3229167,-0.52917 1.8520836,0 0.529167,0.52916 1.322917,0.52916 1.852083,0 m -7.4083335,0 c 0.5291669,-0.52917 1.3229169,-0.52917 1.8520833,0 0.5291667,0.52916 1.3229169,0.52916 1.8520836,0 m -7.40833343,0 c 0.52916673,-0.52917 1.32291663,-0.52917 1.85208323,0 0.5291668,0.52916 1.3229169,0.52916 1.8520835,0"
       inkscape:connector-curvature="0" />
    <path
       id="path880-6-1"
       style="fill:none;stroke:#645034;stroke-width:1.05833328;stroke-linecap:butt;stroke-linejoin:miter;stroke-miterlimit:4;stroke-dasharray:none;stroke-opacity:1"
       d="m 8.2020835,291.70831 c 0.5291667,-0.52917 1.3229167,-0.52917 1.8520835,0 0.529167,0.52916 1.322918,0.52916 1.852084,0 m -7.4083344,0 c 0.5291669,-0.52917 1.3229169,-0.52917 1.8520833,0 0.5291667,0.52916 1.3229169,0.52916 1.8520836,0 m -7.40833353,0 c 0.52916673,-0.52917 1.32291673,-0.52917 1.85208333,0 0.5291668,0.52916 1.3229169,0.52916 1.8520835,0"
       inkscape:connector-curvature="0" />
    <path
       id="path880-6-27"
       style="fill:none;stroke:#746044;stroke-width:1.05833328;stroke-linecap:butt;stroke-linejoin:miter;stroke-miterlimit:4;stroke-dasharray:none;stroke-opacity:1"
       d="m 8.2020835,293.82498 c 0.5291667,-0.52917 1.3229165,-0.52917 1.8520835,0 0.529167,0.52916 1.322917,0.52916 1.852083,0 m -7.4083334,0 c 0.5291669,-0.52917 1.3229169,-0.52917 1.8520833,0 0.5291667,0.52916 1.3229169,0.52916 1.8520836,0 m -7.40833353,0 c 0.52916673,-0.52917 1.32291673,-0.52917 1.85208333,0 0.5291668,0.52916 1.3229169,0.52916 1.8520835,0"
       inkscape:connector-curvature="0" />
    <path
       id="path880-6-27-0"
       style="fill:none;stroke:#746044;stroke-width:1.05833328;stroke-linecap:butt;stroke-linejoin:miter;stroke-miterlimit:4;stroke-dasharray:none;stroke-opacity:1"
       d="m 8.4666669,295.94165 c 0.5291667,-0.52917 1.3229164,-0.52917 1.8520841,0 0.529167,0.52916 1.322917,0.52916 1.852082,0 m -7.408333,0 c 0.5291669,-0.52917 1.3229169,-0.52917 1.8520833,0 0.5291667,0.52916 1.3229169,0.52916 1.8520836,0 m -7.4083336,0 c 0.5291667,-0.52917 1.3229167,-0.52917 1.8520833,0 0.5291667,0.52916 1.322917,0.52916 1.8520836,0"
       inkscape:connector-curvature="0" />
  </g>
</svg>
