<?xml version="1.0" encoding="UTF-8" standalone="no"?>
<!-- Created with Inkscape (http://www.inkscape.org/) -->

<svg
   xmlns:dc="http://purl.org/dc/elements/1.1/"
   xmlns:cc="http://creativecommons.org/ns#"
   xmlns:rdf="http://www.w3.org/1999/02/22-rdf-syntax-ns#"
   xmlns:svg="http://www.w3.org/2000/svg"
   xmlns="http://www.w3.org/2000/svg"
   xmlns:sodipodi="http://sodipodi.sourceforge.net/DTD/sodipodi-0.dtd"
   xmlns:inkscape="http://www.inkscape.org/namespaces/inkscape"
   id="svg2"
   xml:space="preserve"
   viewBox="0 0 276.75 97.76"
   version="1.1"
   inkscape:version="0.92.2 (5c3e80d, 2017-08-06)"
   sodipodi:docname="ilmenskie-hill-13.svg"
   inkscape:export-filename="/home/sakar/workspace/cc94/art/tile-48-free/PHYS0_SS/hill/ilmenskie-hill-13.svg.png"
   inkscape:export-xdpi="5.5500002"
   inkscape:export-ydpi="5.5500002"><sodipodi:namedview
     pagecolor="#ffffff"
     bordercolor="#666666"
     borderopacity="1"
     objecttolerance="10"
     gridtolerance="10"
     guidetolerance="10"
     inkscape:pageopacity="0"
     inkscape:pageshadow="2"
     inkscape:window-width="640"
     inkscape:window-height="480"
     id="namedview86"
     showgrid="false"
     inkscape:zoom="2.8473351"
     inkscape:cx="76.73842"
     inkscape:cy="48.880001"
     inkscape:current-layer="svg2" /><defs
     id="defs6"><linearGradient
       id="linearGradient24"
       y2="-68.903"
       gradientUnits="userSpaceOnUse"
       x2="63.972"
       gradientTransform="matrix(.01472 -1.5999 -1.6001 .00392 -.046898 78.243)"
       y1="-68.903"
       x1="-12.306"><stop
         id="stop26"
         style="stop-color:#2b1736"
         offset="0" /><stop
         id="stop28"
         style="stop-color:#2d1a38"
         offset=".2431" /><stop
         id="stop32"
         style="stop-color:#33243c"
         offset=".40780" /><stop
         id="stop34"
         style="stop-color:#3e3444"
         offset=".55290" /><stop
         id="stop36"
         style="stop-color:#4d4b50"
         offset=".69020" /><stop
         id="stop38"
         style="stop-color:#60685e"
         offset=".81570" /><stop
         id="stop40"
         style="stop-color:#626b60"
         offset=".83140" /><stop
         id="stop42"
         style="stop-color:#9cbab5"
         offset="1" /></linearGradient><linearGradient
       id="linearGradient56"
       y2="-68.338"
       gradientUnits="userSpaceOnUse"
       x2="50.167"
       gradientTransform="matrix(.01472 -1.5999 -1.6001 .00376 -.047458 78.243)"
       y1="-68.338"
       x1="-9.4854"><stop
         id="stop58"
         style="stop-color:#2b1736"
         offset="0" /><stop
         id="stop60"
         style="stop-color:#2d1a38"
         offset=".2431" /><stop
         id="stop64"
         style="stop-color:#33243c"
         offset=".40780" /><stop
         id="stop66"
         style="stop-color:#3e3444"
         offset=".55290" /><stop
         id="stop68"
         style="stop-color:#4d4b50"
         offset=".69020" /><stop
         id="stop70"
         style="stop-color:#60685e"
         offset=".81570" /><stop
         id="stop72"
         style="stop-color:#626b60"
         offset=".83140" /><stop
         id="stop74"
         style="stop-color:#9cbab5"
         offset="1" /></linearGradient><linearGradient
       id="linearGradient88"
       y2="-68.319"
       gradientUnits="userSpaceOnUse"
       x2="53.534"
       gradientTransform="matrix(.01552 -1.5999 -1.6002 .0048 -.048098 78.243)"
       y1="-68.319"
       x1="-5.7437"><stop
         id="stop90"
         style="stop-color:#2b1736"
         offset="0" /><stop
         id="stop92"
         style="stop-color:#2e1a38"
         offset=".2431" /><stop
         id="stop96"
         style="stop-color:#37243f"
         offset=".40780" /><stop
         id="stop98"
         style="stop-color:#47344b"
         offset=".55290" /><stop
         id="stop100"
         style="stop-color:#5d4b5b"
         offset=".69020" /><stop
         id="stop102"
         style="stop-color:#7a6871"
         offset=".81570" /><stop
         id="stop104"
         style="stop-color:#7d6b73"
         offset=".83140" /><stop
         id="stop106"
         style="stop-color:#9cbab5"
         offset="1" /></linearGradient><linearGradient
       id="linearGradient120"
       y2="-66.905"
       gradientUnits="userSpaceOnUse"
       x2="50.321"
       gradientTransform="matrix(.01472 -1.5999 -1.6001 .00376 -.049138 78.242)"
       y1="-66.905"
       x1="-9.5313"><stop
         id="stop122"
         style="stop-color:#2b1736"
         offset="0" /><stop
         id="stop124"
         style="stop-color:#2d1a38"
         offset=".2431" /><stop
         id="stop128"
         style="stop-color:#33243c"
         offset=".40780" /><stop
         id="stop130"
         style="stop-color:#3e3444"
         offset=".55290" /><stop
         id="stop132"
         style="stop-color:#4d4b50"
         offset=".69020" /><stop
         id="stop134"
         style="stop-color:#60685e"
         offset=".81570" /><stop
         id="stop136"
         style="stop-color:#626b60"
         offset=".83140" /><stop
         id="stop138"
         style="stop-color:#9cbab5"
         offset="1" /></linearGradient><linearGradient
       id="linearGradient152"
       y2="-66.87"
       gradientUnits="userSpaceOnUse"
       x2="56.857"
       gradientTransform="matrix(.016 -1.5999 -1.6002 .00496 -.048578 78.243)"
       y1="-66.87"
       x1="-.67040"><stop
         id="stop154"
         style="stop-color:#2b1736"
         offset="0" /><stop
         id="stop156"
         style="stop-color:#2d1a38"
         offset=".2431" /><stop
         id="stop160"
         style="stop-color:#33243c"
         offset=".40780" /><stop
         id="stop162"
         style="stop-color:#3e3444"
         offset=".55290" /><stop
         id="stop164"
         style="stop-color:#4d4b50"
         offset=".69020" /><stop
         id="stop166"
         style="stop-color:#60685e"
         offset=".81570" /><stop
         id="stop168"
         style="stop-color:#626b60"
         offset=".83140" /><stop
         id="stop170"
         style="stop-color:#9cbab5"
         offset="1" /></linearGradient><linearGradient
       id="linearGradient184"
       y2="-66.88"
       gradientUnits="userSpaceOnUse"
       x2="60.003"
       gradientTransform="matrix(.0156 -1.5999 -1.6002 .00504 -.048738 78.243)"
       y1="-66.88"
       x1="3.6753"><stop
         id="stop186"
         style="stop-color:#361747"
         offset="0" /><stop
         id="stop188"
         style="stop-color:#381a48"
         offset=".2314" /><stop
         id="stop192"
         style="stop-color:#40244b"
         offset=".38430" /><stop
         id="stop194"
         style="stop-color:#4d3450"
         offset=".52160" /><stop
         id="stop196"
         style="stop-color:#5e4b56"
         offset="0.651" /><stop
         id="stop198"
         style="stop-color:#75685f"
         offset=".76860" /><stop
         id="stop200"
         style="stop-color:#786b60"
         offset=".78040" /><stop
         id="stop202"
         style="stop-color:#9cbab5"
         offset="1" /></linearGradient></defs><g
     id="g10"
     transform="matrix(1.25 0 0 -1.25 0 97.76)"><g
       id="g12"><g
         id="g14"><g
           id="g16"><g
             id="g22"><path
               id="path44"
               style="fill-rule:evenodd;fill:url(#linearGradient24)"
               d="m202.19 32.161c8.696-1.278 14.481-3.438 17.36-6.481 1.496-1.547 2.082-2.929 1.761-4.16 0-0.691-0.265-1.57-0.8-2.637-1.172-2.082-3.2-4.082-6.082-6-2.77 3.2-8.426 5.465-16.957 6.797-8.27 1.282-19.282 6.297-33.043 15.043-15.946 10.985-27.68 18.985-35.2 24-10.292 6.825-20.691 8.746-31.199 5.758-7.784-2.238-18.104-8.32-30.96-18.238-8.957-6.883-19.332-11.977-31.117-15.281-1.707-0.481-5.84-1.469-12.402-2.961-4.16-1.012-7.145-1.946-8.957-2.797-4.321-2.082-7.414-4.16-9.282-6.242l-0.718 0.48c-8 5.973-5.551 12 7.359 18.078 1.867 0.856 4.985 1.789 9.359 2.801 6.825 1.496 11.118 2.48 12.879 2.961 12.27 3.308 23.039 8.398 32.321 15.281 13.441 9.973 24.187 16.051 32.242 18.238 10.934 3.043 21.758 1.149 32.476-5.679 7.79-4.961 20-12.934 36.641-23.918 14.293-8.75 25.734-13.762 34.32-15.043z"
               inkscape:connector-curvature="0" /></g></g></g><g
         id="g46"><g
           id="g48"><g
             id="g54"><path
               id="path76"
               style="fill-rule:evenodd;fill:url(#linearGradient56)"
               d="m197.47 19.684c8.531-1.336 14.187-3.601 16.957-6.801-3.946-2.507-9.012-4.64-15.2-6.402l-2 0.402c-8.265 1.282-19.277 6.293-33.039 15.04-15.949 10.988-27.679 18.988-35.199 24-10.293 6.828-20.695 8.718-31.199 5.679-7.734-2.183-18.055-8.265-30.961-18.238-8.586-6.613-18.426-11.547-29.52-14.801-5.867-1.707-12.96-3.519-21.281-5.441-3.945 1.656-7.519 3.601-10.719 5.84 1.868 2.082 4.961 4.16 9.282 6.242 1.812 0.851 4.797 1.785 8.957 2.801 6.562 1.492 10.695 2.48 12.402 2.957 11.785 3.308 22.16 8.402 31.117 15.281 12.856 9.922 23.176 16 30.961 18.242 10.508 2.984 20.907 1.066 31.199-5.762 7.52-5.011 19.254-13.011 35.2-24 13.761-8.746 24.773-13.761 33.043-15.039z"
               inkscape:connector-curvature="0" /></g></g></g><g
         id="g78"><g
           id="g80"><g
             id="g86"><path
               id="path108"
               style="fill-rule:evenodd;fill:url(#linearGradient88)"
               d="m197.47 19.684c8.531-1.336 14.187-3.601 16.957-6.801-3.946-2.507-9.012-4.64-15.2-6.402l-2 0.402c-8.265 1.282-19.277 6.293-33.039 15.04-15.949 10.988-27.679 18.988-35.199 24-10.293 6.828-20.695 8.718-31.199 5.679-7.734-2.183-18.055-8.265-30.961-18.238-8.586-6.613-18.426-11.547-29.52-14.801-5.867-1.707-12.96-3.519-21.281-5.441-3.945 1.656-7.519 3.601-10.719 5.84 1.868 2.082 4.961 4.16 9.282 6.242 1.812 0.851 4.797 1.785 8.957 2.801 6.562 1.492 10.695 2.48 12.402 2.957 11.785 3.308 22.16 8.402 31.117 15.281 12.856 9.922 23.176 16 30.961 18.242 10.508 2.984 20.907 1.066 31.199-5.762 7.52-5.011 19.254-13.011 35.2-24 13.761-8.746 24.773-13.761 33.043-15.039z"
               inkscape:connector-curvature="0" /></g></g></g><g
         id="g110"><g
           id="g112"><g
             id="g118"><path
               id="path140"
               style="fill-rule:evenodd;fill:url(#linearGradient120)"
               d="m197.23 6.883 2-0.402c-9.54-2.613-21.23-4.371-35.04-5.277-11.89-0.801-22.45-1.199-31.68-1.199-15.15-0.055-34.69 0.691-58.639 2.238-25.281 1.601-44.559 5.226-57.84 10.879 8.321 1.922 15.414 3.734 21.281 5.441 11.094 3.254 20.934 8.188 29.52 14.801 12.906 9.973 23.227 16.051 30.961 18.238 10.504 3.043 20.906 1.149 31.199-5.679 7.52-5.012 19.25-13.012 35.199-24 13.762-8.747 24.774-13.762 33.039-15.04z"
               inkscape:connector-curvature="0" /></g></g></g><g
         id="g142"><g
           id="g144"><g
             id="g150"><path
               id="path172"
               style="fill-rule:evenodd;fill:url(#linearGradient152)"
               d="m197.23 6.883 2-0.402c-9.54-2.613-21.23-4.371-35.04-5.277-11.89-0.801-22.45-1.199-31.68-1.199-15.15-0.055-34.69 0.691-58.639 2.238-25.281 1.601-44.559 5.226-57.84 10.879 8.321 1.922 15.414 3.734 21.281 5.441 11.094 3.254 20.934 8.188 29.52 14.801 12.906 9.973 23.227 16.051 30.961 18.238 10.504 3.043 20.906 1.149 31.199-5.679 7.52-5.012 19.25-13.012 35.199-24 13.762-8.747 24.774-13.762 33.039-15.04z"
               inkscape:connector-curvature="0" /></g></g></g><g
         id="g174"><g
           id="g176"><g
             id="g182"><path
               id="path204"
               style="fill-rule:evenodd;fill:url(#linearGradient184)"
               d="m197.23 6.883 2-0.402c-9.54-2.613-21.23-4.371-35.04-5.277-11.89-0.801-22.45-1.199-31.68-1.199-15.15-0.055-34.69 0.691-58.639 2.238-25.281 1.601-44.559 5.226-57.84 10.879 8.321 1.922 15.414 3.734 21.281 5.441 11.094 3.254 20.934 8.188 29.52 14.801 12.906 9.973 23.227 16.051 30.961 18.238 10.504 3.043 20.906 1.149 31.199-5.679 7.52-5.012 19.25-13.012 35.199-24 13.762-8.747 24.774-13.762 33.039-15.04z"
               inkscape:connector-curvature="0" /></g></g></g></g></g><metadata
     id="metadata83"><rdf:RDF><cc:Work><dc:format>image/svg+xml</dc:format><dc:type
           rdf:resource="http://purl.org/dc/dcmitype/StillImage" /><cc:license
           rdf:resource="http://creativecommons.org/publicdomain/zero/1.0/" /><dc:publisher><cc:Agent
             rdf:about="http://openclipart.org/"><dc:title>Openclipart</dc:title></cc:Agent></dc:publisher></cc:Work><cc:License
         rdf:about="http://creativecommons.org/licenses/publicdomain/"><cc:permits
           rdf:resource="http://creativecommons.org/ns#Reproduction" /><cc:permits
           rdf:resource="http://creativecommons.org/ns#Distribution" /><cc:permits
           rdf:resource="http://creativecommons.org/ns#DerivativeWorks" /></cc:License></rdf:RDF></metadata></svg>