<?xml version="1.0" encoding="UTF-8" standalone="no"?>
<!-- Created with Inkscape (http://www.inkscape.org/) -->

<svg
   xmlns:dc="http://purl.org/dc/elements/1.1/"
   xmlns:cc="http://creativecommons.org/ns#"
   xmlns:rdf="http://www.w3.org/1999/02/22-rdf-syntax-ns#"
   xmlns:svg="http://www.w3.org/2000/svg"
   xmlns="http://www.w3.org/2000/svg"
   xmlns:sodipodi="http://sodipodi.sourceforge.net/DTD/sodipodi-0.dtd"
   xmlns:inkscape="http://www.inkscape.org/namespaces/inkscape"
   id="svg2"
   xml:space="preserve"
   viewBox="0 0 247.8 100.71"
   version="1.1"
   inkscape:version="0.92.2 (5c3e80d, 2017-08-06)"
   sodipodi:docname="ilmenskie-hill-12.svg"
   inkscape:export-filename="/home/sakar/workspace/cc94/art/tile-48-free/PHYS0_SS/hill/ilmenskie-hill-12.svg.png"
   inkscape:export-xdpi="6.1999998"
   inkscape:export-ydpi="6.1999998"><sodipodi:namedview
     pagecolor="#ffffff"
     bordercolor="#666666"
     borderopacity="1"
     objecttolerance="10"
     gridtolerance="10"
     guidetolerance="10"
     inkscape:pageopacity="0"
     inkscape:pageshadow="2"
     inkscape:window-width="640"
     inkscape:window-height="480"
     id="namedview47"
     showgrid="false"
     inkscape:zoom="3.1799838"
     inkscape:cx="68.711041"
     inkscape:cy="50.355"
     inkscape:current-layer="svg2" /><defs
     id="defs6"><linearGradient
       id="linearGradient24"
       y2="59.481"
       gradientUnits="userSpaceOnUse"
       x2="-1.4063"
       gradientTransform="matrix(-.08344 1.5978 1.5978 .08344 .00012285 80.55)"
       y1="59.481"
       x1="-41.661"><stop
         id="stop26"
         style="stop-color:#2b1736"
         offset="0" /><stop
         id="stop28"
         style="stop-color:#2d1a38"
         offset=".2431" /><stop
         id="stop32"
         style="stop-color:#33243c"
         offset=".40780" /><stop
         id="stop34"
         style="stop-color:#3e3444"
         offset=".55290" /><stop
         id="stop36"
         style="stop-color:#4d4b50"
         offset=".69020" /><stop
         id="stop38"
         style="stop-color:#60685e"
         offset=".81570" /><stop
         id="stop40"
         style="stop-color:#626b60"
         offset=".83140" /><stop
         id="stop42"
         style="stop-color:#9cbab5"
         offset="1" /></linearGradient><linearGradient
       id="linearGradient56"
       y2="59.375"
       gradientUnits="userSpaceOnUse"
       x2="8.785"
       gradientTransform="matrix(-.08976 1.5975 1.5975 .08976 -.000046413 80.553)"
       y1="59.375"
       x1="-49.607"><stop
         id="stop58"
         style="stop-color:#2b1736"
         offset="0" /><stop
         id="stop60"
         style="stop-color:#2d1a38"
         offset=".2431" /><stop
         id="stop64"
         style="stop-color:#33243c"
         offset=".40780" /><stop
         id="stop66"
         style="stop-color:#3e3444"
         offset=".55290" /><stop
         id="stop68"
         style="stop-color:#4d4b50"
         offset=".69020" /><stop
         id="stop70"
         style="stop-color:#60685e"
         offset=".81570" /><stop
         id="stop72"
         style="stop-color:#626b60"
         offset=".83140" /><stop
         id="stop74"
         style="stop-color:#9cbab5"
         offset="1" /></linearGradient><linearGradient
       id="linearGradient88"
       y2="54.5"
       gradientUnits="userSpaceOnUse"
       x2="-7.9561"
       gradientTransform="matrix(-.1568 1.5923 1.5923 .1568 .000049384 80.551)"
       y1="54.5"
       x1="-51.315"><stop
         id="stop90"
         style="stop-color:#2b1736"
         offset="0" /><stop
         id="stop92"
         style="stop-color:#2d1a38"
         offset=".2431" /><stop
         id="stop96"
         style="stop-color:#33243c"
         offset=".40780" /><stop
         id="stop98"
         style="stop-color:#3e3444"
         offset=".55290" /><stop
         id="stop100"
         style="stop-color:#4d4b50"
         offset=".69020" /><stop
         id="stop102"
         style="stop-color:#60685e"
         offset=".81570" /><stop
         id="stop104"
         style="stop-color:#626b60"
         offset=".83140" /><stop
         id="stop106"
         style="stop-color:#9cbab5"
         offset="1" /></linearGradient></defs><g
     id="g10"
     transform="matrix(1.25 0 0 -1.25 0 100.71)"><g
       id="g12"><g
         id="g14"><g
           id="g16"><g
             id="g22"><path
               id="path44"
               style="fill-rule:evenodd;fill:url(#linearGradient24)"
               d="m136.24 49.753c3.735-2.403 6.75-3.442 9.043-3.122 1.867 0.215 3.625 0.801 5.281 1.762 0.907 0.531 2.239 1.383 4 2.559 2.879 1.492 5.758 1.679 8.637 0.558 4.27-1.707 9.149-6.238 14.641-13.597 8.22-11.043 15.02-21.496 20.4-31.36-6.72-1.121-15.89-2.16-27.52-3.121-23.2-1.922-47.01-2.562-71.439-1.922-24.48 0.586-48.371 1.895-71.679 3.922-11.625 1.012-20.829 1.973-27.602 2.879 0.48 5.387 2.773 10.559 6.883 15.52 3.574 4.375 9.305 9.468 17.199 15.281 5.598 4.105 12.48 8.828 20.641 14.16 8.957 5.918 14.504 9.625 16.64 11.121 3.09 2.184 7.117 5.383 12.078 9.598 4.426 3.308 9.227 5.414 14.399 6.32 9.441 1.652 21.176-4.773 35.203-19.281 4.852-5.012 9.25-8.77 13.199-11.277h-0.004z"
               inkscape:connector-curvature="0" /></g></g></g><g
         id="g46"><g
           id="g48"><g
             id="g54"><path
               id="path76"
               style="fill-rule:evenodd;fill:url(#linearGradient56)"
               d="m161.04 2.631c-23.1-1.492-46.48-1.867-70.161-1.121-23.68 0.75-44.293 1.977-61.84 3.684-8.746 0.851-15.117 1.625-19.117 2.316 1.383 3.149 3.543 6.801 6.476 10.961 5.868 8.266 12.614 14.828 20.243 19.68 18.933 12.109 31.121 20.402 36.558 24.879 11.574 9.441 22.961 9.894 34.16 1.363 0.801-0.59 7.176-6.48 19.121-17.683 6.879-6.45 13.547-10.399 20-11.84 10.184-2.239 16.586-3.918 19.2-5.039 5.121-2.239 9.867-6.188 14.242-11.84 6.398-8.426 9.305-12.719 8.719-12.879-6.829-0.906-16.028-1.734-27.602-2.481z"
               inkscape:connector-curvature="0" /></g></g></g><g
         id="g78"><g
           id="g80"><g
             id="g86"><path
               id="path108"
               style="fill-rule:evenodd;fill:url(#linearGradient88)"
               d="m169.68 3.592c-8.96-0.8-18.96-1.547-30-2.242-21.97-1.332-38.05-1.68-48.239-1.039-16.269 0.961-39.949 3.149-71.043 6.559 0.911 1.707 2.348 3.707 4.321 6 4 4.59 8.695 8.32 14.082 11.203 14.078 7.465 26.719 15.492 37.918 24.078 6.347 4.801 11.922 7.519 16.719 8.16 6.882 0.906 14.027-1.625 21.441-7.601 3.043-2.45 8.48-7.09 16.32-13.918 5.442-4.692 10.453-8.586 15.039-11.68 5.707-3.84 10.696-7.574 14.961-11.199 3.895-3.309 6.723-6.082 8.481-8.321z"
               inkscape:connector-curvature="0" /></g></g></g></g></g><metadata
     id="metadata44"><rdf:RDF><cc:Work><dc:format>image/svg+xml</dc:format><dc:type
           rdf:resource="http://purl.org/dc/dcmitype/StillImage" /><cc:license
           rdf:resource="http://creativecommons.org/publicdomain/zero/1.0/" /><dc:publisher><cc:Agent
             rdf:about="http://openclipart.org/"><dc:title>Openclipart</dc:title></cc:Agent></dc:publisher></cc:Work><cc:License
         rdf:about="http://creativecommons.org/licenses/publicdomain/"><cc:permits
           rdf:resource="http://creativecommons.org/ns#Reproduction" /><cc:permits
           rdf:resource="http://creativecommons.org/ns#Distribution" /><cc:permits
           rdf:resource="http://creativecommons.org/ns#DerivativeWorks" /></cc:License></rdf:RDF></metadata></svg>