<?xml version="1.0" encoding="UTF-8" standalone="no"?>
<!-- Created with Inkscape (http://www.inkscape.org/) -->

<svg
   xmlns:dc="http://purl.org/dc/elements/1.1/"
   xmlns:cc="http://creativecommons.org/ns#"
   xmlns:rdf="http://www.w3.org/1999/02/22-rdf-syntax-ns#"
   xmlns:svg="http://www.w3.org/2000/svg"
   xmlns="http://www.w3.org/2000/svg"
   xmlns:sodipodi="http://sodipodi.sourceforge.net/DTD/sodipodi-0.dtd"
   xmlns:inkscape="http://www.inkscape.org/namespaces/inkscape"
   id="svg2"
   xml:space="preserve"
   viewBox="0 0 211.5 76.688"
   version="1.1"
   inkscape:version="0.92.2 (5c3e80d, 2017-08-06)"
   sodipodi:docname="ilmenskie-hill-9.svg"
   inkscape:export-filename="/home/sakar/workspace/cc94/art/tile-48-free/PHYS0_SS/hill/ilmenskie-hill-9.svg.png"
   inkscape:export-xdpi="7.2624111"
   inkscape:export-ydpi="7.2624111"><sodipodi:namedview
     pagecolor="#ffffff"
     bordercolor="#666666"
     borderopacity="1"
     objecttolerance="10"
     gridtolerance="10"
     guidetolerance="10"
     inkscape:pageopacity="0"
     inkscape:pageshadow="2"
     inkscape:window-width="640"
     inkscape:window-height="480"
     id="namedview47"
     showgrid="false"
     inkscape:zoom="3.7257683"
     inkscape:cx="154.82977"
     inkscape:cy="38.344002"
     inkscape:current-layer="svg2" /><defs
     id="defs6"><linearGradient
       id="linearGradient24"
       y2="-53.286"
       gradientUnits="userSpaceOnUse"
       x2="33.22"
       gradientTransform="matrix(-.02616 -1.5998 -1.5998 .02616 .077689 61.379)"
       y1="-53.286"
       x1="-1.2588"><stop
         id="stop26"
         style="stop-color:#361747"
         offset="0" /><stop
         id="stop28"
         style="stop-color:#381a48"
         offset=".2431" /><stop
         id="stop32"
         style="stop-color:#40244b"
         offset=".40780" /><stop
         id="stop34"
         style="stop-color:#4d3450"
         offset=".55290" /><stop
         id="stop36"
         style="stop-color:#5e4b56"
         offset=".69020" /><stop
         id="stop38"
         style="stop-color:#75685f"
         offset=".81570" /><stop
         id="stop40"
         style="stop-color:#786b60"
         offset=".83140" /><stop
         id="stop42"
         style="stop-color:#9cbab5"
         offset="1" /></linearGradient><linearGradient
       id="linearGradient56"
       y2="-53.934"
       gradientUnits="userSpaceOnUse"
       x2="30.992"
       gradientTransform="matrix(-.02592 -1.5998 -1.5998 .02592 .076809 61.38)"
       y1="-53.934"
       x1="1.9639"><stop
         id="stop58"
         style="stop-color:#2b1736"
         offset="0" /><stop
         id="stop60"
         style="stop-color:#2e1a38"
         offset=".2431" /><stop
         id="stop64"
         style="stop-color:#37243f"
         offset=".40780" /><stop
         id="stop66"
         style="stop-color:#47344b"
         offset=".55290" /><stop
         id="stop68"
         style="stop-color:#5d4b5b"
         offset=".69020" /><stop
         id="stop70"
         style="stop-color:#7a6871"
         offset=".81570" /><stop
         id="stop72"
         style="stop-color:#7d6b73"
         offset=".83140" /><stop
         id="stop74"
         style="stop-color:#9cbab5"
         offset="1" /></linearGradient><linearGradient
       id="linearGradient88"
       y2="-53.52"
       gradientUnits="userSpaceOnUse"
       x2="33.889"
       gradientTransform="matrix(-.02584 -1.5998 -1.5998 .02584 .077849 61.38)"
       y1="-53.52"
       x1="9.1865"><stop
         id="stop90"
         style="stop-color:#361747"
         offset="0" /><stop
         id="stop92"
         style="stop-color:#381a48"
         offset=".2431" /><stop
         id="stop96"
         style="stop-color:#40244b"
         offset=".40780" /><stop
         id="stop98"
         style="stop-color:#4d3450"
         offset=".55290" /><stop
         id="stop100"
         style="stop-color:#5e4b56"
         offset=".69020" /><stop
         id="stop102"
         style="stop-color:#75685f"
         offset=".81570" /><stop
         id="stop104"
         style="stop-color:#786b60"
         offset=".83140" /><stop
         id="stop106"
         style="stop-color:#9cbab5"
         offset="1" /></linearGradient></defs><g
     id="g10"
     transform="matrix(1.25 0 0 -1.25 0 76.688)"><g
       id="g12"><g
         id="g14"><g
           id="g16"><g
             id="g22"><path
               id="path44"
               style="fill-rule:evenodd;fill:url(#linearGradient24)"
               d="m157.6 6.179c-9.98-3.305-20.51-5.067-31.6-5.278-11.79-0.32-20.03-0.347-24.72-0.082-12.053 0.641-24.003 2.559-35.842 5.758-10.879 2.934-23.2 5.789-36.961 8.563-13.758 2.824-22.692 4.292-26.797 4.398-3.575 0.16-1.442 2.187 6.398 6.082 6.133 3.039 12.027 5.598 17.68 7.68 2.347 0.851 7.652 2.718 15.922 5.601 8.48 3.305 16.238 7.09 23.277 11.36 9.707 5.918 17.441 9.437 23.203 10.558 7.735 1.492 15.281-0.16 22.641-4.961 5.226-3.414 13.066-8.16 23.519-14.238 9.492-5.547 16.348-9.762 20.559-12.641 5.547-3.839 9.598-7.972 12.16-12.402 1.281-2.238 2-4.078 2.16-5.52-2.773-1.597-6.64-3.226-11.601-4.878z"
               inkscape:connector-curvature="0" /></g></g></g><g
         id="g46"><g
           id="g48"><g
             id="g54"><path
               id="path76"
               style="fill-rule:evenodd;fill:url(#linearGradient56)"
               d="m147.12 3.78c-7.04-1.336-14.32-1.812-21.84-1.441-10.67 0.105-19.58 0.375-26.721 0.801-13.18 0.851-24.215 2.828-33.121 5.917-8.27 2.883-17.813 5.016-28.641 6.403-10.559 1.387-16.293 2.265-17.199 2.64-3.735 0.106-5.52 0.293-5.36 0.559 1.227 0.641 2.559 1.332 4 2.082 6.559 2.024 12.399 3.863 17.516 5.52 9.922 3.093 17.871 7.117 23.844 12.078 9.918 8.105 18.132 12.961 24.64 14.562 7.465 1.918 15.039 0.371 22.715-4.64 14.777-9.762 22.563-14.934 23.363-15.52 8.321-5.816 14.719-11.121 19.2-15.922 5.015-5.387 7.496-8.824 7.441-10.32 0-0.746-0.508-0.934-1.519-0.559-2.028-0.746-4.801-1.468-8.321-2.16z"
               inkscape:connector-curvature="0" /></g></g></g><g
         id="g78"><g
           id="g80"><g
             id="g86"><path
               id="path108"
               style="fill-rule:evenodd;fill:url(#linearGradient88)"
               d="m141.04 2.421c-4.32-0.906-9.87-1.547-16.64-1.922-10.67-0.531-19.66-0.641-26.962-0.32-13.016 0.64-24.133 2.562-33.36 5.761-9.547 3.305-15.469 5.282-17.762 5.918-0.214 0.055-2.824 0.614-7.839 1.684-7.2 1.172-11.493 1.89-12.879 2.16-1.067 0.156-1.496 0.371-1.282 0.637 0.215 0.215 1.172 0.64 2.879 1.281 2.348 0.852 6.293 1.734 11.84 2.641 6.027 1.441 12.43 4.214 19.203 8.32 9.703 5.918 17.438 9.441 23.2 10.559 7.734 1.492 15.277-0.184 22.636-5.04 5.391-3.519 12.137-7.894 20.242-13.121 6.293-4.16 11.68-8.16 16.161-12 3.359-2.933 5.039-4.691 5.039-5.277-0.801-0.375-2.293-0.801-4.477-1.281z"
               inkscape:connector-curvature="0" /></g></g></g></g></g><metadata
     id="metadata44"><rdf:RDF><cc:Work><dc:format>image/svg+xml</dc:format><dc:type
           rdf:resource="http://purl.org/dc/dcmitype/StillImage" /><cc:license
           rdf:resource="http://creativecommons.org/publicdomain/zero/1.0/" /><dc:publisher><cc:Agent
             rdf:about="http://openclipart.org/"><dc:title>Openclipart</dc:title></cc:Agent></dc:publisher></cc:Work><cc:License
         rdf:about="http://creativecommons.org/licenses/publicdomain/"><cc:permits
           rdf:resource="http://creativecommons.org/ns#Reproduction" /><cc:permits
           rdf:resource="http://creativecommons.org/ns#Distribution" /><cc:permits
           rdf:resource="http://creativecommons.org/ns#DerivativeWorks" /></cc:License></rdf:RDF></metadata></svg>